<svg id="Group_11544" data-name="Group 11544" xmlns="http://www.w3.org/2000/svg" xmlns:xlink="http://www.w3.org/1999/xlink" width="16.79" height="11.996" viewBox="0 0 16.79 11.996">
  <defs>
    <clipPath id="clip-path">
      <rect id="Rectangle_139533" data-name="Rectangle 139533" width="16.79" height="11.996" fill="#231f20"/>
    </clipPath>
  </defs>
  <g id="Group_11542" data-name="Group 11542" clip-path="url(#clip-path)">
    <path id="Path_27892" data-name="Path 27892" d="M16.79,1.715H15.078V3.427H16.79V5.139H15.078V6.85H16.79V8.562H15.078v1.712H16.79V11.31A.706.706,0,0,1,16.1,12H.685a.654.654,0,0,1-.479-.207A.659.659,0,0,1,0,11.31V10.284H1.712V8.572H0V6.86H1.712V5.148H0V3.437H1.712V1.725H0V.685a.646.646,0,0,1,.207-.5A.679.679,0,0,1,.685,0H16.1a.688.688,0,0,1,.479.187.646.646,0,0,1,.207.5ZM6.509,8.569,10.792,6,6.509,3.427V8.569" transform="translate(0)" fill="#231f20"/>
  </g>
</svg>
