<svg id="noun-dashboard-1742834" xmlns="http://www.w3.org/2000/svg" width="18.132" height="18.131" viewBox="0 0 18.132 18.131">
  <path id="Path_27885" data-name="Path 27885" d="M295.642,194.244h-3.409a.577.577,0,0,1-.562-.562v-10.19a.577.577,0,0,1,.562-.562h3.409a.577.577,0,0,1,.562.562v10.19A.577.577,0,0,1,295.642,194.244Z" transform="translate(-284.872 -181.407)" fill="#000"/>
  <path id="Path_27886" data-name="Path 27886" d="M120.642,195.767h-3.409a.577.577,0,0,1-.562-.562V183.492a.577.577,0,0,1,.562-.562h3.409a.577.577,0,0,1,.562.562V195.2A.577.577,0,0,1,120.642,195.767Z" transform="translate(-116.671 -182.93)" fill="#000"/>
  <path id="Path_27887" data-name="Path 27887" d="M134.244,49.678H117.237a.577.577,0,0,1-.562-.562V47.23a.577.577,0,0,1,.562-.562h17.007a.577.577,0,0,1,.562.562v1.886A.59.59,0,0,1,134.244,49.678Z" transform="translate(-116.675 -31.547)" fill="#000"/>
  <path id="Path_27888" data-name="Path 27888" d="M470.642,192.739h-3.409a.577.577,0,0,1-.562-.562v-8.685a.577.577,0,0,1,.562-.562h3.409a.577.577,0,0,1,.562.562v8.685A.577.577,0,0,1,470.642,192.739Z" transform="translate(-453.072 -179.903)" fill="#000"/>
</svg>
