<svg id="Group_11545" data-name="Group 11545" xmlns="http://www.w3.org/2000/svg" width="17.098" height="16.268" viewBox="0 0 17.098 16.268">
  <g id="Group_11540" data-name="Group 11540" transform="translate(0 0)">
    <path id="Path_27889" data-name="Path 27889" d="M11.5,15.789a1.763,1.763,0,0,0-1.42,1.369c-.043.246-.043,9.513,0,9.759a1.774,1.774,0,0,0,1.268,1.326c.1.022,2.478.036,7.281.036h7.129l.217-.08a1.7,1.7,0,0,0,.964-.826c.21-.391.2-.152.2-5.325,0-3.05-.014-4.774-.036-4.89a2.038,2.038,0,0,0-.413-.819,1.811,1.811,0,0,0-.717-.478l-.225-.087H18.711C14.842,15.767,11.6,15.782,11.5,15.789Zm7.94,4.347c1.8,1.036,3.26,1.891,3.26,1.9s-1.253.739-2.775,1.623-3.036,1.753-3.34,1.927l-.558.326V18.158l.08.043C16.139,18.231,17.646,19.1,19.443,20.136Z" transform="translate(-10.046 -15.773)" fill="#231f20"/>
    <path id="Path_27890" data-name="Path 27890" d="M99.9,64.727v2.941l.2-.109c1.268-.724,4.883-2.818,4.883-2.833s-4.956-2.891-5.05-2.927C99.914,61.792,99.9,63.111,99.9,64.727Z" transform="translate(-93.387 -58.465)" fill="#231f20"/>
    <path id="Path_27891" data-name="Path 27891" d="M13.673,200.948a1.445,1.445,0,0,0-.891.877l-.072.2-1.355.007L10,202.042v.536h2.739l.022.109a1.563,1.563,0,0,0,.753.906,1.444,1.444,0,0,0,1.985-.848l.058-.167H27.1v-.536H15.55l-.058-.174a1.5,1.5,0,0,0-.775-.869A1.439,1.439,0,0,0,13.673,200.948Z" transform="translate(-10 -187.464)" fill="#231f20"/>
  </g>
</svg>
