<svg xmlns="http://www.w3.org/2000/svg" width="14.068" height="16" viewBox="0 0 14.068 16">
  <path id="movies-icon" d="M2.32,1.2a2.322,2.322,0,1,1-1.641.681A2.322,2.322,0,0,1,2.32,1.2ZM2.292,6.21H9.136a1.156,1.156,0,0,1,1.153,1.153v5.015a1.157,1.157,0,0,1-1.153,1.158H7.021L8.556,16H7.125L5.452,13.744,3.76,15.995H2.311l1.526-2.458H2.292a1.157,1.157,0,0,1-1.153-1.158V7.363A1.156,1.156,0,0,1,2.292,6.21Zm4.946,3.913c.242-.156.241-.329,0-.467l-2.5-1.432c-.2-.124-.4-.051-.39.207v2.894c.017.279.176.355.41.226l2.473-1.432Zm3.706,1.592V8.009l3.124-1.844V13.6ZM7.89,0A2.92,2.92,0,1,1,5.824.855,2.92,2.92,0,0,1,7.89,0Z" transform="translate(0.001 0)" fill="#231f20" fill-rule="evenodd"/>
</svg>
