<svg xmlns="http://www.w3.org/2000/svg" width="15.978" height="16" viewBox="0 0 15.978 16">
  <g id="XMLID_1_" transform="translate(-0.5)">
    <path id="XMLID_5_" d="M15.146,7.989a2.058,2.058,0,0,1,1.3-1.91,8.577,8.577,0,0,0-.985-2.373,2.075,2.075,0,0,1-.838.175,2.048,2.048,0,0,1-1.448-.607A2.1,2.1,0,0,1,12.745.988,8.12,8.12,0,0,0,10.371,0,1.975,1.975,0,0,1,8.489,1.332a2.058,2.058,0,0,1-1.91-1.3,8.537,8.537,0,0,0-2.373.985A2.008,2.008,0,0,1,3.771,3.3a2.035,2.035,0,0,1-1.448.607,2.064,2.064,0,0,1-.838-.175A8.577,8.577,0,0,0,.5,6.1a2.058,2.058,0,0,1,1.3,1.91A2.058,2.058,0,0,1,.5,9.925,8.577,8.577,0,0,0,1.485,12.3a2.075,2.075,0,0,1,.838-.175,2.048,2.048,0,0,1,1.448.607,2.1,2.1,0,0,1,.435,2.286A8.577,8.577,0,0,0,6.579,16,2.052,2.052,0,0,1,10.4,16a8.577,8.577,0,0,0,2.373-.985,2.063,2.063,0,0,1,2.72-2.717,8.577,8.577,0,0,0,.985-2.373,2.057,2.057,0,0,1-1.332-1.936Zm-6.629,3.3a3.33,3.33,0,1,1,3.33-3.3A3.331,3.331,0,0,1,8.517,11.291Z" fill="#231f20"/>
  </g>
</svg>
